<svg xmlns="http://www.w3.org/2000/svg" xmlns:xlink="http://www.w3.org/1999/xlink" width="46" height="46" viewBox="0 0 46 46">
  <defs>
    <linearGradient id="linear-gradient" x1="0.5" x2="0.5" y2="1" gradientUnits="objectBoundingBox">
      <stop offset="0" stop-color="#63f6be"/>
      <stop offset="1" stop-color="#0ab2e4"/>
    </linearGradient>
  </defs>
  <g id="Group_11" data-name="Group 11" transform="translate(-627 -1493)">
    <rect id="Arbitrum_logo" width="46" height="46" rx="23" transform="translate(627 1493)" fill="url(#linear-gradient)"/>
    <g id="Symbols" transform="translate(619.51 1243.836)">
      <g id="_x30_0_x5F_Assets_x2F_Logo_x2F_Horizontal_x2F_Full-Color" transform="translate(20.2 261.9)">
        <g id="Harmony-logo-FC-horizontal" transform="translate(0 0)">
          <path id="Shape" d="M36.338,261.9a4.439,4.439,0,0,0-4.442,4.425v4.9c-.463.034-.926.051-1.406.051s-.943.017-1.406.051v-5.008a4.442,4.442,0,0,0-8.884,0v11.73a4.442,4.442,0,0,0,8.884,0v-4.9c.463-.034.926-.051,1.406-.051s.943-.017,1.406-.051v5.008a4.442,4.442,0,0,0,8.884,0v-11.73A4.461,4.461,0,0,0,36.338,261.9Zm-11.7,1.818a2.62,2.62,0,0,1,2.624,2.607v5.2a15.061,15.061,0,0,0-3.773,1.063,6.327,6.327,0,0,0-1.458.875v-7.134A2.6,2.6,0,0,1,24.642,263.718Zm2.607,14.337a2.624,2.624,0,0,1-5.248,0v-1.183a3.171,3.171,0,0,1,2.2-2.641,13.41,13.41,0,0,1,3.036-.892v4.716Zm9.089,2.607a2.62,2.62,0,0,1-2.624-2.607v-5.2a15.059,15.059,0,0,0,3.773-1.063,6.327,6.327,0,0,0,1.458-.875v7.134A2.606,2.606,0,0,1,36.338,280.662Zm.412-10.53a13.408,13.408,0,0,1-3.035.892v-4.7a2.624,2.624,0,1,1,5.248,0v1.183A3.2,3.2,0,0,1,36.749,270.132Z" transform="translate(-20.2 -261.9)" fill="#fff"/>
        </g>
      </g>
    </g>
  </g>
</svg>