<svg id="optimism.caeb9392" xmlns="http://www.w3.org/2000/svg" width="46" height="46" viewBox="0 0 46 46">
  <circle id="Ellipse_2" data-name="Ellipse 2" cx="23" cy="23" r="23" fill="#ff0420"/>
  <path id="Path_5" data-name="Path 5" d="M16.3,29.113a5.529,5.529,0,0,1-3.366-.967,3.3,3.3,0,0,1-1.295-2.8,6.215,6.215,0,0,1,.086-.932q.225-1.243.639-2.986a5.67,5.67,0,0,1,6.059-4.747,6.023,6.023,0,0,1,2.382.449,3.62,3.62,0,0,1,1.657,1.312,3.52,3.52,0,0,1,.6,2.071,6.133,6.133,0,0,1-.086.915q-.259,1.536-.621,2.986a6.333,6.333,0,0,1-2.089,3.539A6.289,6.289,0,0,1,16.3,29.113Zm.242-2.486a2.453,2.453,0,0,0,1.64-.57,3.178,3.178,0,0,0,.984-1.743q.4-1.623.6-2.831a3.961,3.961,0,0,0,.069-.742q0-1.571-1.64-1.571a2.521,2.521,0,0,0-1.657.57,3.235,3.235,0,0,0-.967,1.744q-.311,1.157-.621,2.831a3.685,3.685,0,0,0-.069.725Q14.881,26.627,16.538,26.627Z" fill="#fff"/>
  <path id="Path_6" data-name="Path 6" d="M23.856,28.94a.365.365,0,0,1-.293-.121.413.413,0,0,1-.052-.311l2.382-11.221a.494.494,0,0,1,.19-.311.526.526,0,0,1,.328-.121H31a5.336,5.336,0,0,1,3.073.794,2.6,2.6,0,0,1,1.174,2.3,4.133,4.133,0,0,1-.1.9A4.674,4.674,0,0,1,33.4,23.779a5.9,5.9,0,0,1-3.556.949h-2.33l-.794,3.781a.5.5,0,0,1-.19.311.526.526,0,0,1-.328.121Zm6.111-6.594a2.057,2.057,0,0,0,1.26-.4,1.864,1.864,0,0,0,.725-1.139A3.026,3.026,0,0,0,32,20.292a.959.959,0,0,0-.293-.76,1.447,1.447,0,0,0-1-.276H28.638l-.656,3.09Z" fill="#fff"/>
</svg>