<svg id="Group_5" data-name="Group 5" xmlns="http://www.w3.org/2000/svg" width="45.099" height="39" viewBox="0 0 45.099 39">
  <g id="Group_4" data-name="Group 4" transform="translate(0 0)">
    <path id="Path_7" data-name="Path 7" d="M41.591,34.62H3.508A3.508,3.508,0,0,0,0,38.128v3.987a.5.5,0,0,0,.5.5H44.6a.5.5,0,0,0,.5-.5V38.128A3.508,3.508,0,0,0,41.591,34.62ZM6.325,39.749a1.131,1.131,0,1,1,1.131-1.131A1.131,1.131,0,0,1,6.325,39.749Zm3.625,0a1.131,1.131,0,1,1,1.131-1.131A1.131,1.131,0,0,1,9.95,39.749Zm3.625,0a1.131,1.131,0,1,1,1.131-1.131A1.131,1.131,0,0,1,13.575,39.749Z" transform="translate(0 -34.62)" fill="#fff"/>
    <path id="Path_8" data-name="Path 8" d="M44.6,148.15H.5a.5.5,0,0,0-.5.5v24.991a3.508,3.508,0,0,0,3.508,3.508H41.591a3.508,3.508,0,0,0,3.508-3.508V148.651A.5.5,0,0,0,44.6,148.15ZM15.7,160.26l-1.749,5.4a1,1,0,0,1-1.8.229l-1.344-2.112-1.344,2.112a1,1,0,0,1-1.8-.229l-1.749-5.4a1,1,0,0,1,1.907-.618l1.093,3.372L9.96,161.37a1,1,0,0,1,1.691,0l1.046,1.645,1.093-3.372A1,1,0,0,1,15.7,160.26Zm11.744,0-1.749,5.4a1,1,0,0,1-1.8.229l-1.344-2.112-1.344,2.112a1,1,0,0,1-1.8-.229l-1.749-5.4a1,1,0,0,1,1.907-.618l1.093,3.372L21.7,161.37a1,1,0,0,1,1.691,0l1.046,1.645,1.093-3.372A1,1,0,0,1,27.441,160.26Zm11.744,0-1.749,5.4a1,1,0,0,1-1.8.229l-1.344-2.112-1.344,2.112a1,1,0,0,1-1.8-.229l-1.749-5.4a1,1,0,0,1,1.907-.618l1.093,3.372,1.046-1.645a1,1,0,0,1,1.691,0l1.046,1.645,1.093-3.372A1,1,0,0,1,39.185,160.26Z" transform="translate(0 -138.15)" fill="#fff"/>
  </g>
</svg>